<?xml version="1.0" encoding="UTF-8"?>
<svg xmlns="http://www.w3.org/2000/svg" xmlns:xlink="http://www.w3.org/1999/xlink" viewBox="0 0 525.81 574.19">
  <defs>
    <style>
      .cls-1 {
        fill: #dcdbdb;
      }

      .cls-2 {
        fill: #b6afd1;
      }

      .cls-3 {
        fill: #c7c5cf;
      }

      .cls-4 {
        fill: url(#Dégradé_sans_nom_32);
      }

      .cls-5, .cls-6 {
        fill: #fff;
      }

      .cls-6 {
        stroke-width: 3px;
      }

      .cls-6, .cls-7 {
        stroke: #fff;
        stroke-miterlimit: 10;
      }

      .cls-8 {
        fill: #a096cb;
      }

      .cls-7 {
        fill: url(#Dégradé_sans_nom_57);
        stroke-width: .75px;
      }

      .cls-9 {
        fill: url(#Dégradé_sans_nom_34);
      }

      .cls-10 {
        fill: url(#Dégradé_sans_nom_33);
      }
    </style>
    <linearGradient id="Dégradé_sans_nom_32" data-name="Dégradé sans nom 32" x1="314.65" y1="128.96" x2="276.85" y2="210.66" gradientUnits="userSpaceOnUse">
      <stop offset=".15" stop-color="#faf9fa"/>
      <stop offset="1" stop-color="#bcbbc1"/>
    </linearGradient>
    <linearGradient id="Dégradé_sans_nom_33" data-name="Dégradé sans nom 33" x1="231.61" y1="117.92" x2="208.23" y2="142.95" gradientUnits="userSpaceOnUse">
      <stop offset="0" stop-color="#f6f6f6"/>
      <stop offset="1" stop-color="#d0cfd1"/>
    </linearGradient>
    <linearGradient id="Dégradé_sans_nom_34" data-name="Dégradé sans nom 34" x1="254.9" y1="116.45" x2="266.38" y2="151.39" gradientUnits="userSpaceOnUse">
      <stop offset="0" stop-color="#f7f7f7"/>
      <stop offset="1" stop-color="#d0cfd1"/>
    </linearGradient>
    <linearGradient id="Dégradé_sans_nom_57" data-name="Dégradé sans nom 57" x1="159.58" y1="169.99" x2="402.55" y2="169.99" gradientUnits="userSpaceOnUse">
      <stop offset=".02" stop-color="#000"/>
      <stop offset=".31" stop-color="#5a5a5a"/>
      <stop offset=".48" stop-color="#9d9d9d"/>
      <stop offset=".6" stop-color="#c5c5c5"/>
      <stop offset=".72" stop-color="#fff"/>
      <stop offset=".8" stop-color="#fff"/>
      <stop offset=".92" stop-color="#fff"/>
    </linearGradient>
  </defs>
  <g id="Calque_4" data-name="Calque 4">
    <g>
      <rect x=".3" y=".5" width="524.81" height="573.19"/>
      <path d="M524.61,1v572.19H.8V1h523.81M525.61,0H-.2v574.19h525.81V0h0Z"/>
    </g>
  </g>
  <g id="Calque_2" data-name="Calque 2">
    <path class="cls-6" d="M117.34,363.22l18.26-56.2h27.38v2.33h-2.18c-1.98,0-3.57.44-4.76,1.32-.83.59-1.49,1.57-1.98,2.95-.36,1.01-.55,3.62-.55,7.86v56.2c0,4.36.18,7.08.55,8.17s1.11,2.04,2.23,2.86,2.63,1.23,4.51,1.23h2.18v2.33h-35.12v-2.33h2.18c1.98,0,3.57-.44,4.76-1.32.83-.59,1.49-1.59,1.98-3.02.36-1.01.55-3.65.55-7.92v-63.17l-25.8,77.76h-1.19l-26.19-77.19v60.03c0,4.19.08,6.77.25,7.73.43,2.1,1.36,3.8,2.8,5.12s3.7,1.98,6.77,1.98v2.33h-23.02v-2.33h.69c1.49.04,2.88-.26,4.17-.91s2.27-1.52,2.93-2.61,1.17-2.62,1.54-4.59c.07-.46.1-2.6.1-6.41v-53.93c0-4.32-.18-7.01-.55-8.08s-1.11-2.01-2.23-2.83-2.63-1.23-4.51-1.23h-2.13v-2.33h27.48l18.9,56.2Z"/>
    <path class="cls-6" d="M204.05,305.83c10.71-.5,19.42,3.46,26.12,11.88,6.7,8.42,10.05,18.96,10.05,31.62,0,10.81-2.5,20.32-7.49,28.54-6.61,10.9-15.96,16.34-28.03,16.34s-21.46-5.2-28.08-15.59c-5.23-8.21-7.84-17.96-7.84-29.23,0-12.66,3.4-23.21,10.19-31.65,6.8-8.44,15.15-12.41,25.08-11.91ZM204.65,309.86c-6.15,0-10.83,3.98-14.04,11.94-2.61,6.54-3.92,15.92-3.92,28.16,0,14.54,2.02,25.29,6.05,32.25,2.81,4.86,6.75,7.29,11.81,7.29,3.41,0,6.25-1.05,8.53-3.14,2.91-2.68,5.18-6.97,6.8-12.85s2.43-13.57,2.43-23.04c0-11.27-.83-19.71-2.48-25.3s-3.76-9.54-6.32-11.85c-2.56-2.3-5.51-3.46-8.85-3.46Z"/>
    <path class="cls-6" d="M270.82,353.42v23.89c0,4.61.22,7.51.67,8.71.45,1.19,1.23,2.15,2.36,2.86s3.22,1.07,6.3,1.07v2.33h-34.43v-2.33c3.11,0,5.22-.37,6.32-1.1s1.89-1.69,2.33-2.86.67-4.06.67-8.67v-55.32c0-4.61-.22-7.51-.67-8.71s-1.23-2.15-2.36-2.86-3.22-1.07-6.3-1.07v-2.33h31.25c8.14,0,14.09.71,17.86,2.14s6.85,4.05,9.23,7.89,3.57,8.33,3.57,13.48c0,6.29-1.79,11.48-5.36,15.59-2.28,2.6-5.47,4.55-9.57,5.85l16.17,28.85c2.12,3.73,3.62,6.06,4.51,6.98,1.36,1.3,2.93,2.01,4.71,2.14v2.33h-21.18l-21.68-38.85h-4.41ZM270.82,311.62v37.34h2.83c4.6,0,8.04-.53,10.32-1.6s4.08-3,5.38-5.78c1.31-2.79,1.96-6.42,1.96-10.91,0-6.5-1.2-11.29-3.6-14.4s-6.26-4.65-11.58-4.65h-5.31Z"/>
    <path class="cls-6" d="M318.54,392.27v-2.33h2.23c1.95,0,3.45-.39,4.49-1.16s1.81-1.83,2.31-3.17c.3-.88.45-3.52.45-7.92v-56.07c0-4.36-.18-7.08-.55-8.17s-1.1-2.04-2.21-2.86-2.6-1.23-4.49-1.23h-2.23v-2.33h30.11c8.04,0,14.5,1.38,19.4,4.15,5.99,3.39,10.52,8.53,13.62,15.4,3.09,6.87,4.64,14.65,4.64,23.32,0,5.99-.76,11.51-2.28,16.56s-3.49,9.22-5.9,12.51c-2.41,3.29-5.2,5.93-8.36,7.92s-7.02,3.53-11.58,4.62c-2.02.5-5.19.75-9.52.75h-30.11ZM344.19,311.87v66.51c0,3.52.13,5.68.4,6.47s.71,1.4,1.34,1.82c.89.63,2.18.94,3.87.94,5.52,0,9.74-2.39,12.65-7.17,3.97-6.45,5.95-16.47,5.95-30.05,0-10.94-1.36-19.68-4.07-26.21-2.15-5.11-4.91-8.59-8.28-10.43-2.38-1.3-6.33-1.93-11.86-1.89Z"/>
    <path class="cls-6" d="M392.95,307.03h34.72v2.33h-1.74c-2.61,0-4.41.35-5.38,1.04s-1.67,1.64-2.08,2.86-.62,4.25-.62,9.11v41.74c0,7.63.45,12.68,1.36,15.15s2.41,4.53,4.49,6.16c2.08,1.63,4.71,2.45,7.89,2.45,3.64,0,6.74-1.04,9.3-3.11s4.48-4.93,5.75-8.58,1.91-9.99,1.91-19.05v-34.76c0-3.81-.31-6.54-.94-8.17s-1.42-2.77-2.38-3.39c-1.49-.96-3.59-1.45-6.3-1.45v-2.33h23.27v2.33h-1.39c-1.89,0-3.46.48-4.71,1.45s-2.17,2.41-2.73,4.34c-.43,1.34-.64,3.75-.64,7.23v32.37c0,10.02-.52,17.24-1.56,21.69s-3.58,8.53-7.61,12.26c-4.03,3.73-9.54,5.59-16.52,5.59-5.82,0-10.32-.98-13.49-2.95-4.33-2.68-7.39-6.12-9.18-10.31s-2.68-9.83-2.68-16.91v-41.74c0-4.9-.21-7.95-.64-9.15s-1.17-2.15-2.23-2.86-3.01-1.05-5.85-1.01v-2.33Z"/>
    <g>
      <path class="cls-6" d="M127.39,406.99l.61,27.11h-2.26c-1.07-6.8-3.68-12.27-7.85-16.41-4.17-4.14-8.68-6.21-13.53-6.21-3.75,0-6.71,1.09-8.9,3.27-2.19,2.18-3.28,4.69-3.28,7.53,0,1.8.39,3.4,1.16,4.8,1.07,1.88,2.77,3.74,5.12,5.58,1.73,1.32,5.71,3.66,11.96,7.02,8.74,4.68,14.64,9.1,17.69,13.26,3.01,4.16,4.52,8.92,4.52,14.28,0,6.8-2.43,12.65-7.3,17.55-4.87,4.9-11.05,7.35-18.54,7.35-2.35,0-4.57-.26-6.67-.78s-4.72-1.5-7.88-2.94c-1.76-.8-3.22-1.2-4.35-1.2-.96,0-1.97.4-3.03,1.2-1.07.8-1.93,2.02-2.59,3.66h-2.04v-30.71h2.04c1.62,8.64,4.73,15.23,9.34,19.77,4.61,4.54,9.58,6.81,14.91,6.81,4.11,0,7.39-1.22,9.84-3.66,2.44-2.44,3.66-5.28,3.66-8.52,0-1.92-.47-3.78-1.41-5.58s-2.36-3.51-4.27-5.13c-1.91-1.62-5.29-3.73-10.14-6.33-6.8-3.64-11.68-6.74-14.66-9.3-2.98-2.56-5.26-5.42-6.86-8.58s-2.4-6.64-2.4-10.44c0-6.48,2.18-12,6.56-16.56,4.37-4.56,9.88-6.84,16.53-6.84,2.42,0,4.77.32,7.05.96,1.73.48,3.83,1.37,6.31,2.67,2.48,1.3,4.22,1.95,5.21,1.95s1.71-.32,2.26-.96,1.07-2.18,1.54-4.62h1.65Z"/>
      <path class="cls-6" d="M167.62,453.36v22.55c0,4.4.25,7.17.74,8.31s1.38,2.05,2.64,2.73c1.27.68,3.59,1.02,6.97,1.02v2.22h-37.97v-2.22c3.45,0,5.79-.35,7.03-1.05,1.23-.7,2.09-1.61,2.59-2.73s.74-3.88.74-8.28v-52.79c0-4.4-.25-7.17-.74-8.31s-1.37-2.05-2.62-2.73c-1.25-.68-3.58-1.02-7-1.02v-2.22h32.57c10.73,0,18.42,2.08,23.09,6.24,4.66,4.16,7,9.36,7,15.6,0,5.28-1.51,9.8-4.52,13.56-3.01,3.76-7.16,6.32-12.45,7.68-3.56.96-9.59,1.44-18.07,1.44ZM167.62,413.53v35.15c1.21.08,2.13.12,2.76.12,4.48,0,7.93-1.45,10.36-4.35,2.42-2.9,3.64-7.39,3.64-13.47s-1.21-10.46-3.64-13.26c-2.42-2.8-6.04-4.2-10.86-4.2h-2.26Z"/>
      <path class="cls-6" d="M249.66,407.71c11.9-.48,21.57,3.3,29.01,11.34,7.44,8.04,11.16,18.1,11.16,30.17,0,10.32-2.77,19.4-8.32,27.23-7.35,10.4-17.72,15.6-31.13,15.6s-23.84-4.96-31.19-14.88c-5.8-7.84-8.71-17.14-8.71-27.89,0-12.08,3.77-22.14,11.32-30.2s16.83-11.85,27.85-11.37ZM250.33,411.55c-6.83,0-12.03,3.8-15.59,11.4-2.9,6.24-4.35,15.2-4.35,26.87,0,13.88,2.24,24.13,6.72,30.77,3.12,4.64,7.49,6.96,13.11,6.96,3.78,0,6.94-1,9.48-3,3.23-2.56,5.75-6.65,7.55-12.27,1.8-5.62,2.7-12.95,2.7-21.98,0-10.76-.92-18.81-2.76-24.14-1.84-5.34-4.18-9.11-7.03-11.31-2.85-2.2-6.13-3.3-9.84-3.3Z"/>
      <path class="cls-6" d="M323.83,453.12v22.79c0,4.4.25,7.17.74,8.31.5,1.14,1.37,2.05,2.62,2.73,1.25.68,3.58,1.02,7,1.02v2.22h-38.24v-2.22c3.45,0,5.79-.35,7.03-1.05,1.23-.7,2.09-1.61,2.59-2.73s.74-3.88.74-8.28v-52.79c0-4.4-.25-7.17-.74-8.31s-1.37-2.05-2.62-2.73c-1.25-.68-3.58-1.02-7-1.02v-2.22h34.71c9.04,0,15.65.68,19.84,2.04,4.19,1.36,7.6,3.87,10.25,7.53,2.64,3.66,3.97,7.95,3.97,12.87,0,6-1.98,10.96-5.95,14.88-2.53,2.48-6.08,4.34-10.63,5.58l17.96,27.53c2.35,3.56,4.02,5.78,5.01,6.66,1.51,1.24,3.25,1.92,5.23,2.04v2.22h-23.53l-24.08-37.07h-4.9ZM323.83,413.23v35.63h3.14c5.11,0,8.93-.51,11.46-1.53s4.53-2.86,5.98-5.52c1.45-2.66,2.18-6.13,2.18-10.41,0-6.2-1.33-10.78-3.99-13.74-2.66-2.96-6.95-4.44-12.87-4.44h-5.9Z"/>
      <path class="cls-6" d="M442.58,408.85v22.01h-1.98c-1.18-5.08-2.48-8.73-3.91-10.95s-3.4-3.99-5.9-5.31c-1.4-.72-3.84-1.08-7.33-1.08h-5.57v62.74c0,4.16.21,6.76.63,7.8.42,1.04,1.25,1.95,2.48,2.73,1.23.78,2.91,1.17,5.04,1.17h2.48v2.22h-39.12v-2.22h2.48c2.17,0,3.91-.42,5.23-1.26.96-.56,1.71-1.52,2.26-2.88.4-.96.61-3.48.61-7.56v-62.74h-5.4c-5.03,0-8.69,1.16-10.97,3.48-3.2,3.24-5.22,7.86-6.06,13.86h-2.09v-22.01h67.11Z"/>
    </g>
    <g id="Objet_génératif" data-name="Objet génératif">
      <path class="cls-1" d="M177.84,180.05c.78-.95,2.51-2.17,2.98-3.31.74-1.81,2.43-10.95,2.18-12.83-.33-2.5-2.94-5.06-3.97-7.27-3.66-7.86-1.96-17.43-2.38-25.87-.67-1.35-.98,5.23-.99,5.56-.26,5.63-.12,13.8,1.79,19.03,1.11,3.05,3.77,5.4,3.97,8.66h-1.19c.07-.77-.03-1.5-.2-2.24l-.3.32c-2.96-3.54-4.31-7.78-4.67-12.51-.15-2.03.41-8.09,0-9.41-.14-.44-.47-.47-.6-.21-.2.4-.44,8-.4,8.98.14,3.58.75,7.11,2.38,10.26.49.94,2.41,2.86,2.58,3.63.55,2.53-1.96,7.32-2.78,9.3-.93-.43-1.93.12-2.38-.64-.46-3.31-1.77-6.38-2.18-9.73-.54-4.43.2-9.41,0-13.9h-.79c-.06,6.02-1.06,12.2.6,18.06-.75-.02-.55-.07-.4.53.71,2.85,2.97,8.63,4.17,11.44.35.82.53,1.51,1.19,2.14-.64-.02-.12.55-.89.21-1.07-.46-5.01-12.22-5.46-14-.27-1.08-.09-2.22-.2-3.21-.02-.2-.58-.01-.6-.21-.21-2.26-.24-6.21-.2-8.55.07-4,2.26-21.24,5.26-23.84.98-.85,3.1-1.59,3.47.32.33,1.71-.22,6.4-.2,8.55.04,4.23-.16,9.9,1.19,14.11,1.29,4.03,5.1,7.36,5.36,11.97.13,2.34-1.38,6.19-1.99,8.34-.03.1.05,1.99,0,2.14-.11.33-.76.57-.79.64-.85,1.77-1.14,2.92-3.57,3.53Z"/>
      <path class="cls-5" d="M317.22,125.44c-1.56-1.71-3.98-2-5.86-3.31-5.37.46-10.56,2.22-15.88,3.21-.07.05-.86,1.3-.89,1.39-.24.53-.47,3.04-.6,3.42-.02.06-.7.57-.79.86-3.55,11.28-5.03,24.41-6.9,36.46-.02,1.41-.07,2.82-.14,4.21,1.23-9.76,2.98-19.57,4.86-28.49.5-2.39,3.64-14.9,4.57-16.25.6-.87,2.72-1.57,3.18-.43-1.53,2.08-2.87,4.15-3.77,6.63l.5.32.69-.64c3.32-6.16,6.08-8.1,12.81-8.55.76-.05,1.66-.18,2.28.43-.28-.66-.39-.66-.79-1.18.39-.52,4.7,1.1,5.26,1.6,1.14,1.01.61,3.5.89,5.34l.4.11-.3.32-.1-.43s-.3-.05-.2.53c.03.18.6.3.79,1.39.21,1.19,1.11,5,.99,5.88-.14,1.1-4.9,9.26-5.76,11.12-7.63,16.43-16.59,37.24-19.06,55.37-.57,4.2-1.01,8.47-1.44,12.73.37-.81.65-1.62.7-2.44.07-1.21.42-2.2.96-3.01.47-3.94.97-7.82,1.57-11.35.12-.7.07-2.6.2-3.21.88-4.23,3.06-9.37,4.57-13.68,1.45-4.16,3.41-8.98,5.16-13.47.14-.37-.28-.64-.2-.86,2.64-6.72,6.16-14.14,9.13-20.52.81-1.75,4.98-9.3,5.16-10.26.63-3.29-2.27-9.59-1.99-13.25Z"/>
      <path class="cls-1" d="M252.69,167.87c6-17.92,14.84-32.47,27.6-45.64,0-.58-.35-.26-.6-.21-2.57.45-10.63,9.97-12.51,12.51l-.2-.75c1.32-2,8.05-9.55,8.34-11.33.06-.37-1.37-6.86-1.59-7.27-.59-1.13-2.33-1.63-3.28-2.24-.33-.21.21-.52,0-.64-.38-.22-.76.23-.79.21-.24-.13-.31-.62-.79-.86-3.85-1.83-5.45-.18-8.74,2.14l-.2-.43c-1.92,1.1-3.18,3.14-4.86,4.49-.22.18-.85.89-.89.86-1.23-1,4.61-5.66,5.46-6.09-2.72-.44-4.5.63-6.16,2.99-6.47,9.27-4.52,26.2-3.38,37.09.47,4.42,1.22,8.84,1.79,13.25.1.8.04,2.73.6,2.78-.11.33.24.76-.5.64-1.86-6.93-2.35-14.35-3.47-21.27-.5-6.38-.93-12.62-.2-18.6.56-4.56,2.78-15.82,7.45-17.64.32-.12.76.39,1.19.21.75-.3,2.11-1.27,2.78-1.5.36-.12.62.33.99.21,1.78-.55,3.56-1.35,5.16-1.92,2.28.35,4,1.64,5.36,2.14,1.75.64,6.63,1.72,7.94,2.99s1.66,6.66,2.28,8.23c-5.48,7.07-11.73,13.46-16.48,21.16-4.23,6.85-6.88,13.7-9.93,20.95-.11.26-.29-.26-.4,0-.19.45-.54,4.22-1.99,3.53Z"/>
      <path class="cls-5" d="M285.05,254.23c1.65-1.45,3.5-5.23,5.16-6.95-8.74-9.14-16.97-18.99-23.63-30.04-3.65-6.05-6.47-12.22-9.53-18.6-.41-.84-.62-1.96-1.29-2.57-.46,3.84.72,7.67,1.09,11.44.75,7.54.72,16.69,1.99,23.94.05.27.81,4.28,1.19,2.99.46-1.54-2.09-10.08-.99-12.51.28,2.62.23,5.73.6,8.23.46,3.13,1.73,5.95,1.99,9.09-.15-.25-.21-.33-.3-.64-.17.04-.5-.06-.6,0-.65.43,3.69,11.12,4.27,12.4,1.05,2.32,2.08,4.59,3.57,6.63-.06,0-.61.41-1.09.21-5.32-8.14-8.41-18.46-9.63-28.11-1-7.88-1.37-17.08-2.18-25.01,0-.05-.54-.34-.6-.86-.37-3.68-.86-7.46.1-11.01,3.06,4.77,4.97,10.46,7.64,15.5,7.63,14.38,17.63,27.16,28.59,38.69.11.71-5.07,7.63-5.86,7.8-.87.19-.18-.53-.5-.64Z"/>
      <path class="cls-8" d="M215.96,215.76c6.54,12.69,14.89,24.4,24.62,34.42-.67.89-5.07,6.88-5.46,7.05-3.22,1.41-12.41-.18-15.39-2.35-2.29-1.67-3.32-4.51-4.57-7.05l-4.37-13.15c1.14-2.62,1.1,1.23,1.19,1.5,1.37,3.98,4.51,14.24,7.54,16.78,3.78,3.16,9.22,2.71,13.8,2.78,1.29-.3,3.63-4.72,4.86-5.88.03-.64-.76-.7-.79-.75-.26-.33-.55-.56-.79-.86-5.93-7.21-10.41-14.05-15.69-21.7-.26-.37-.49-1-.99-.53-1.25-2.31-3.36-5.44-4.17-7.91-.29-.89-1.16-2.74.2-2.35Z"/>
      <path class="cls-8" d="M285.05,254.23c-2.68,2.35-12.91,3.61-16.48,3.42-1.5-2.03-2.52-4.31-3.57-6.63l.6-.64c.55,1.22,1.95,4.3,2.78,5.13.02.02-.04.51.3.64,5.03-.25,9.94-1.66,14.89-2.57l4.47-6.31c-2.74-3.85-6.19-7.04-9.13-10.69-2.67-3.31-6.83-8.29-8.93-11.86-1.45-2.46-2.05-4.84-3.38-7.48,6.65,11.05,14.88,20.89,23.63,30.04-1.66,1.72-3.51,5.5-5.16,6.95Z"/>
      <path class="cls-2" d="M252.69,167.87c-.14.41-.13.64-.2.86-.56-.05-.49-1.98-.6-2.78.55.06.63-.54.79-.96,4.58-11.84,6.77-20.07,14.49-30.46,1.88-2.53,9.94-12.05,12.51-12.51.25-.04.59-.36.6.21-12.75,13.17-21.6,27.73-27.6,45.64Z"/>
      <path class="cls-5" d="M318.01,242.26c1.07-.58,5.13-7.43,7.15-8.23-5.48-6.33-10.47-13.22-14.49-20.74-.67-.35-.35,1.37-.4,1.82-.22,2.04-.12,3.95-.2,5.99-.09,2.54-.21,4.96-.4,7.48-.15,1.98-.11,4.4-.4,6.31-.4,2.67-1.73,5.38-1.79,8.02-.04,0-.62.23-.89,0-.96-.78.79-3.09.89-3.53,1.31-5.46,1.5-13.73,1.79-19.45.1-1.98-.13-3.9,0-5.77.03-.39.59-2.75.89-2.89l16.18,22.77c-1.82,1.08-6.03,7.75-7.35,8.34-.19.08-.67-.24-.99-.11Z"/>
      <path class="cls-8" d="M318.01,242.26c-1.56.85-8.68,1.01-10.52.64.05-2.64,1.39-5.34,1.79-8.02.28-1.91.25-4.32.4-6.31,1.52-.64,1.05,3.96.99,5.02-.17,2.92-1.35,5.46-1.79,8.02.93.45,8.01-.37,9.03-1.07.29-.19.58-.94.69-1.07,1.58-1.68,2.87-3.84,4.77-5.24.26-.89-.69-1.14-.99-1.6-3.95-6-7.56-10.87-11.32-17.21-.26-.44-.24-.75-.79-.32.05-.45-.27-2.17.4-1.82,4.02,7.51,9.01,14.41,14.49,20.74-2.02.8-6.08,7.65-7.15,8.23Z"/>
      <path class="cls-8" d="M177.84,180.05c-.31.08-1.01,0-1.39,0-.66-.63-.84-1.32-1.19-2.14,1.41.41,3.82-1.32,4.37-2.67.69-1.71,1.9-9.34,1.79-11.22-.2-3.26-2.86-5.61-3.97-8.66-1.9-5.23-2.04-13.4-1.79-19.03.02-.33.32-6.91.99-5.56.43,8.44-1.27,18,2.38,25.87,1.03,2.21,3.64,4.76,3.97,7.27.24,1.87-1.44,11.02-2.18,12.83-.47,1.15-2.2,2.36-2.98,3.31Z"/>
      <path class="cls-5" d="M213.18,208.27s.52.04.79.53c.06.11.46,1.9.6,2.14,7.58,13.94,15.69,27.22,26.61,38.48l.2.43c-.15.42-.77.29-.79.32-9.73-10.02-18.08-21.73-24.62-34.42-1.55-3-3.94-7.33-4.96-10.47-.07-.22-.61-1.44,0-1.39.71,1.52,1.37,2.93,2.18,4.38Z"/>
      <path class="cls-5" d="M215.16,247.82c1.25,2.54,2.28,5.39,4.57,7.05-.21.78-1.17.22-1.49,0-2.64-1.79-4.13-7.71-5.06-10.26.76-.3,1.58,2.38,1.99,3.21Z"/>
      <path class="cls-1" d="M236.61,248.25c-.53-.15-.36.4-.4.43-4.25-3.63-7.58-8.5-10.72-13.25-2.08-3.15-3.75-6.08-5.56-9.41.5-.47.73.16.99.53,5.28,7.64,9.75,14.49,15.69,21.7Z"/>
      <path class="cls-1" d="M219.53,252.95c-.52-.7,1.03-.23,1.09-.21,2.76.82,10.15,2.62,12.71,1.71.56-.2,3.22-4.74,4.07-5.34.03.04.82.11.79.75-1.23,1.16-3.57,5.58-4.86,5.88-4.58-.07-10.02.38-13.8-2.78Z"/>
      <path class="cls-5" d="M225.49,235.42c3.15,4.76,6.47,9.62,10.72,13.25-.16.13-.85.44-.89.43-.81-.22-11.2-12.69-11.02-13.57l1.19-.11Z"/>
      <g>
        <path class="cls-1" d="M213.18,208.27c-.82-1.45-1.48-2.86-2.18-4.38-.61-.05-.07,1.17,0,1.39-.17,1.52.8,4.3,1.39,5.88.86,2.29,2.21,4.81,3.38,6.95.81,2.47,2.91,5.6,4.17,7.91,1.81,3.33,3.48,6.26,5.56,9.41l-1.19.11c-.18.88,10.21,13.35,11.02,13.57.05.01.74-.3.89-.43.03-.03-.13-.57.4-.43.24.29.54.53.79.86-.85.6-3.51,5.15-4.07,5.34-2.55.91-9.95-.89-12.71-1.71-.06-.02-1.61-.49-1.09.21-3.04-2.54-6.18-12.8-7.54-16.78-.09-.26-.06-4.12-1.19-1.5l4.37,13.15c-.4-.82-1.23-3.5-1.99-3.21-.75-2.06-1.88-4.42-2.58-6.73-.09-.3.42-.58.4-.64-.03-.11-.51-.14-.6-.43-3.11-10.68-3.01-15.4-2.38-26.72.23-4.22-.09-8.78.89-12.72,1.09,1.76,1.52,4.02,2.28,5.88.64,1.56,1.98,3.24,1.99,5.02Z"/>
        <path class="cls-5" d="M215.46,242.69c.72-.2,3.3,6.4,4.07,7.16.97.96,3.25,1.12,4.47,1.6-.64,1.09.39.22.2,1.07-1.38-.52-4.4-.73-5.46-1.82-.36-.37-3.46-6.96-3.47-7.38,0-.24.07-.45.2-.64Z"/>
      </g>
      <path class="cls-3" d="M215.96,215.76c-1.36-.39-.49,1.46-.2,2.35-1.16-2.14-2.52-4.66-3.38-6.95-.59-1.58-1.56-4.36-1.39-5.88,1.03,3.14,3.42,7.47,4.96,10.47Z"/>
      <g>
        <path class="cls-5" d="M181.11,193.52c.26.04,1.03,4.88,1.09,5.45.4,3.54.23,7.99.79,10.69.97,4.65,4.29,10.36,6.75,14.54,3.17,5.39,7.04,10.35,10.13,15.82-2.74,1.76-6.45,4.16-9.63,2.67-14.78-6.93-15.17-30.6-11.22-44.36.22-.78,1.55-4.88,2.08-4.81Z"/>
        <path class="cls-8" d="M187.76,238.63c3.15,1.97,4.99,2.62,8.64,1.07v-.64c-.99-1.42-2.16-2.81-3.08-4.28-5.54-8.82-12.12-18.5-12.71-29.5-.08-1.48-.24-3.88.4-5.13.27,2.64.37,5.67.79,8.23,1.93,11.61,10.85,21.6,16.68,31.21-4.97,3.2-7.34,3.21-11.62-.96-.06-.06-1.34-1.14-.79-1.28.47.59,1.08.9,1.69,1.28Z"/>
        <path class="cls-1" d="M181.01,200.15c-.63,1.25-.48,3.65-.4,5.13-1.75,1.34.75,3.24-1.99,3.53,2.05.86,1.07,1.44,1.79,3.42-.27.32-1.64-.11-1.99.21-.4.38.57,9.76.79,11.12.06.38.59.6.6.64,0,.05-.41.37-.4.43.31,1.58,1.38,3.11.99,4.7-.41.12-.89-1.42-.99-1.71-1.53-4.46-2.57-16.86-1.19-21.16.22-.69.58.29.6,0,.04-.63-.4-.78-.4-.86.03-.85,1.73-8.81,2.28-8.66.56.93.19,2.13.3,3.21Z"/>
        <path class="cls-1" d="M187.76,238.63c1.97-.71,4.99.02,7.05.64.06-1.59-3.04-3.35-1.49-4.49.92,1.47,2.08,2.86,3.08,4.28v.64c-3.65,1.56-5.49.9-8.64-1.07Z"/>
      </g>
      <path class="cls-1" d="M181.41,164.02c.12,1.88-1.09,9.51-1.79,11.22-.55,1.35-2.96,3.08-4.37,2.67-1.2-2.8-3.46-8.59-4.17-11.44-.15-.6-.36-.55.4-.53.29,1.02,1.83,4.64,2.38,5.56.46.76,1.45.21,2.38.64-.15.36-.96,2.13-.99,2.24-.1.36-.28.47.1.75,2.05-3.01,4.53-7.31,4.86-11.12h1.19Z"/>
      <path class="cls-5" d="M180.22,164.02c-.33,3.81-2.81,8.1-4.86,11.12-.38-.28-.2-.39-.1-.75.03-.12.84-1.88.99-2.24.82-1.98,3.33-6.77,2.78-9.3-.17-.77-2.09-2.7-2.58-3.63-1.64-3.15-2.24-6.68-2.38-10.26-.04-.98.2-8.58.4-8.98.13-.26.46-.22.6.21.41,1.32-.15,7.38,0,9.41.35,4.73,1.7,8.96,4.67,12.51l.3-.32c.17.74.27,1.48.2,2.24Z"/>
      <path class="cls-5" d="M173.87,171.5c-.55-.92-2.09-4.53-2.38-5.56-1.65-5.86-.65-12.05-.6-18.06h.79c.2,4.48-.54,9.46,0,13.9.41,3.35,1.73,6.42,2.18,9.73Z"/>
      <path class="cls-4" d="M314.64,133.45c-1-2.98-2.14-5.89-3.38-8.76-.63-.61-1.52-.48-2.28-.43-6.72.45-9.49,2.39-12.81,8.55-4.14,7.68-4.47,16.54-5.76,25.12-.13.84-1.92,5.58-.5,5.88.15.03.29-.12.39-.26-.8,1.17-.85-.6-1.28.16.3.54-.77,3.39.6,2.67.03-.01.1-.37.2-.64.08-.22-.13-.64.1-.86.37.33-.09.81-.1.86-.07.3.04.26-.2.64-.26.41-.73-.06-.99.75-.31.95-.25,3.65-.6,4.92-.1.35-.93.62-.99.86-1.04,4.02-.47,7.84-.79,11.76-.02.26-.79.59-.79.64-.17,1.77.47,3.92.4,5.34,0,.18-.33,1.08-.49,1.98.02.97.04,1.94.05,2.9,0,.53-.06,1.01-.16,1.46,0,.21,0,.43,0,.64.22.58.36,1.2.42,1.84,1.69,5.41,2.67,11.11,5.06,16.26.1.21.18.42.25.62,1.82-17.99,4.87-33.29,11.95-50.71,1.8-4.42,12.84-26.05,12.71-28.43-.05-.9-1.12-2.78-.99-3.74ZM290.61,162.74c-.06.35.02.28-.2.64.02-.03.03-.29.2-.64.06-.13-.11-.5.1-.64.35.38-.09.61-.1.64Z"/>
      <path class="cls-2" d="M317.22,132.38c-1.01-.46-2.42-.12-2.58,1.07-.13.96.94,2.84.99,3.74.13,2.38-10.91,24.01-12.71,28.43-7.08,17.42-10.13,32.73-11.95,50.71.29.84.39,1.66.32,2.44.23-.43.46-.86.66-1.3.43-4.27.86-8.53,1.44-12.73,2.48-18.13,11.43-38.94,19.06-55.37.86-1.86,5.62-10.01,5.76-11.12.11-.88-.78-4.68-.99-5.88Z"/>
      <path class="cls-1" d="M294.98,133.13c.9-2.47,2.24-4.55,3.77-6.63-.46-1.14-2.58-.44-3.18.43-.93,1.35-4.06,13.86-4.57,16.25-1.87,8.91-3.63,18.73-4.86,28.49-.1,1.96-.22,3.91-.41,5.84,0,.32-.01.65-.06.98-.64,4.65-.43,9.42-.32,14.13.17-.9.48-1.8.49-1.98.07-1.43-.56-3.58-.4-5.34,0-.05.77-.38.79-.64.33-3.92-.25-7.74.79-11.76.06-.23.9-.5.99-.86.35-1.26.29-3.97.6-4.92.26-.81.73-.34.99-.75-1.37.72-.3-2.13-.6-2.67.43-.76.48,1.01,1.28-.16-.1.14-.24.3-.39.26-1.42-.3.37-5.04.5-5.88,1.29-8.58,1.62-17.44,5.76-25.12l-.69.64-.5-.32Z"/>
      <path class="cls-1" d="M316.62,130.46s-.3-.05-.2.53c.03.18.6.3.79,1.39-1.01-.46-2.42-.12-2.58,1.07-1-2.98-2.14-5.89-3.38-8.76-.28-.66-.39-.66-.79-1.18.39-.52,4.7,1.1,5.26,1.6,1.14,1.01.61,3.5.89,5.34Z"/>
      <polygon class="cls-1" points="316.62 130.46 317.02 130.57 316.72 130.89 316.62 130.46"/>
      <g>
        <path class="cls-1" d="M220.82,106.73c5.26-.72,10.32,2.89,14.1,6.63,1.03,1.02,3.54,3.36,3.28,4.81-7.48,13.21-17.33,23-21.05,38.27-.26,1.05-.08,3.26-.79,4.49-2.64,4.54-3.18-4.04-3.57-5.34-1.07-3.52-3.72-7.97-4.37-11.33-1.03-5.32-.38-17.72.99-23.09.05-.21.77-1.21.79-1.28.01-.04-.41-.39-.4-.43.02-.07.76-.4.99-1.07.02-.06-.28-1.06-.2-1.28,1.73-4.46,5.54-9.73,10.23-10.37Z"/>
        <path class="cls-10" d="M233.43,120.84c-4.86,5.46-14.89,20.46-16.88,27.47-.82,2.91-.89,6.22-1.59,8.98-.1.4-.37,1.02-.79,1.18-1.43-5.52-3.16-10.18-4.96-15.5,1.43-2.98.68-6.53.99-9.83.54-5.67.89-10.3,3.38-15.39.6-1.23,5.03-8.44,5.86-8.66,1.99,1.04,7.54,1.4,9.13,2.35,1,.59,4.01,7.93,4.86,9.41Z"/>
        <path class="cls-2" d="M214.17,158.46c.42-.15.69-.77.79-1.18.7-2.76.76-6.07,1.59-8.98,1.99-7.01,12.02-22.01,16.88-27.47,1.08-1.21,2.34-2.27,3.47-3.42,1.05.53-11.22,17.87-12.01,19.13-1.86,2.97-5.08,7.58-6.35,10.69-1.74,4.25-2.13,9.46-3.38,13.9-.44.41-.93-2.44-.99-2.67Z"/>
      </g>
      <path class="cls-9" d="M267.18,134.52c-7.72,10.39-9.91,18.62-14.49,30.46-.16.42-.24,1.02-.79.96-.56-4.41-1.32-8.83-1.79-13.25l.99,1.18c-.78-4.9-.69-9.81-.79-14.75-.03-1.37-.26-3.7-.2-5.56.01-.39-.2-1.06.4-.96-.06,1.16-.47,4.36-.2,5.24.14.44.19.45.6.21l.99-14.64c.77-2.05,2.12-3.7,3.18-5.56,1.68-1.35,2.94-3.39,4.86-4.49l.2.43c3.28-2.31,4.89-3.96,8.74-2.14.49.23.56.73.79.86.04.02.42-.44.79-.21.21.13-.33.43,0,.64.95.62,2.68,1.11,3.28,2.24.21.41,1.65,6.9,1.59,7.27-.29,1.78-7.02,9.33-8.34,11.33l.2.75Z"/>
      <path class="cls-1" d="M255.07,117.85c-1.06,1.85-2.4,3.51-3.18,5.56-1.12,2.96-1.24,6.03-1.39,9.19-.6-.09-.38.57-.4.96-.06,1.86.17,4.19.2,5.56.11,4.94.02,9.85.79,14.75l-.99-1.18c-1.15-10.89-3.1-27.82,3.38-37.09,1.65-2.36,3.43-3.44,6.16-2.99-.85.43-6.69,5.09-5.46,6.09.05.04.67-.68.89-.86Z"/>
      <g>
        <path class="cls-5" d="M188.86,116.99c.19-.05,3.6.16,3.97.21,2.82.39,3.51,1.46,5.96,3.21,2.05,1.47,4.61,2.7,5.66,5.24-1.93,3.67-4.44,7.03-6.35,10.69-3.22,6.14-3.7,9.13-5.16,15.61-1.45,6.43-2.4,12.54-4.17,18.81-.11.37.41,2.13-.89,1.82-1.41-4.18-2.4-8.49-3.67-12.72-3.47-11.54-5.19-17.56-2.78-30.14.06-.3-.26-.35-.2-.64.06-.27.34.27.4,0,.1-.42-.3-.66-.2-1.07.81-3.08,2.63-6.27,4.77-8.55.51-.54,2.1-2.3,2.68-2.46Z"/>
        <path class="cls-1" d="M199.68,129.18c-4.65,7.4-8.25,15.51-9.93,24.26-.63,3.31-.9,10.21-1.79,12.83-.05.14-.6.66-.79.75-1.73-5.73-3.42-11.49-5.16-17.21,1.67-1.02.31-1.4.2-3.21-.45-7.38.23-22.04,6.65-26.61,1.46-1.04,5.13.21,6.55,1.28.41.31,2.41,2.82,2.68,3.31.36.64-.13,1.02,0,1.28.47.97,1.88,1.92,1.59,3.31Z"/>
        <path class="cls-2" d="M187.17,167.01c.2-.09.75-.61.79-.75.88-2.62,1.15-9.52,1.79-12.83,1.68-8.76,5.27-16.86,9.93-24.26.54-.87,2.32-3.4,3.08-3.85.23-.14.42-.53.5.11-2.87,5.44-7.27,11.28-9.33,17.1-2.96,8.36-3.75,19.01-5.56,27.79-.6-.82-.88-2.29-1.19-3.31Z"/>
      </g>
      <path class="cls-1" d="M259.24,205.49c2.93,6.87,6.41,13.2,10.32,19.45.94,1.5,1.78,3.03,2.78,4.49-.38.05-.57-.43-.99-.11-.33.25,3.11,4.93,3.57,5.56,3.15,4.27,6.55,8.09,10.32,11.76.03.3-2.86,4.39-3.57,4.49.21.14.24.07.4.32l-13.6,2.14-5.06-9.41c-.35-.93-1.47-4.42-1.79-4.92-.25-3.13-1.52-5.96-1.99-9.09-.37-2.5-.31-5.61-.6-8.23-.53-4.91-1.24-10.25-1.19-14.86,0-.07-.76-.99-.1-1.18.09-.03.49.89,1.49-.43Z"/>
      <path class="cls-1" d="M257.06,198.65c-.74-.04-.31.83-.2,1.18.57,1.7,1.65,3.95,2.38,5.67-1,1.31-1.4.4-1.49.43-.66.18.1,1.11.1,1.18-.05,4.61.66,9.95,1.19,14.86-1.1,2.43,1.45,10.96.99,12.51-.38,1.29-1.14-2.72-1.19-2.99-1.26-7.26-1.24-16.4-1.99-23.94-.37-3.77-1.55-7.6-1.09-11.44.67.61.89,1.72,1.29,2.57Z"/>
      <path class="cls-3" d="M257.06,198.65c3.06,6.38,5.88,12.54,9.53,18.6,1.32,2.64,1.92,5.02,3.38,7.48l-.4.21c-3.91-6.25-7.39-12.59-10.32-19.45-.73-1.71-1.81-3.96-2.38-5.67-.12-.34-.54-1.21.2-1.18Z"/>
      <path class="cls-3" d="M261.63,239.27c.31.5,1.44,3.99,1.79,4.92.78,2.08,1.21,4.06,2.18,6.2l-.6.64c-.58-1.28-4.92-11.97-4.27-12.4.1-.06.42.04.6,0,.08.31.14.4.3.64Z"/>
      <path class="cls-1" d="M268.38,255.52c2.97-1.54,12.1-1.75,14.3-3.42.38-.29,3.87-5.33,3.77-5.67-5.21-5.1-9.93-10.89-14.1-17-1-1.46-1.84-2.99-2.78-4.49l.4-.21c2.11,3.57,6.26,8.56,8.93,11.86,2.95,3.65,6.39,6.84,9.13,10.69l-4.47,6.31c-4.95.9-9.86,2.32-14.89,2.57-.34-.13-.27-.62-.3-.64Z"/>
      <path class="cls-1" d="M282.08,251.46c.16.25.29.56.6.64-2.19,1.67-11.33,1.88-14.3,3.42-.83-.83-2.22-3.91-2.78-5.13-.97-2.13-1.41-4.12-2.18-6.2l5.06,9.41,13.6-2.14Z"/>
      <path class="cls-1" d="M322.38,232.64c-1.16,1.1-1.34,2.18-2.18,3.31-.37.5-2.51,2.96-2.88,3.1-.45.17-.75-.44-.79-.43-.06.02-.68.55-1.19.64-1.2.21-2.73.17-3.97.43.7-5.19.5-12.23-.5-17.42-.07-.38-.24-1.28-.79-1.18.07-2.04-.02-3.94.2-5.99.56-.43.53-.12.79.32,3.76,6.34,7.37,11.21,11.32,17.21Z"/>
      <path class="cls-3" d="M322.38,232.64c.3.46,1.25.72.99,1.6-1.9,1.4-3.18,3.56-4.77,5.24l-9.73,2.14c.44-2.56,1.62-5.09,1.79-8.02.06-1.06.53-5.67-.99-5.02.19-2.53.3-4.95.4-7.48.56-.1.72.79.79,1.18,1,5.19,1.2,12.23.5,17.42,1.25-.26,2.77-.22,3.97-.43.51-.09,1.13-.62,1.19-.64.05-.01.35.6.79.43.37-.14,2.51-2.6,2.88-3.1.84-1.13,1.02-2.21,2.18-3.31Z"/>
      <path class="cls-3" d="M318.61,239.48c-.12.13-.41.87-.69,1.07-1.02.7-8.11,1.52-9.03,1.07l9.73-2.14Z"/>
      <path class="cls-1" d="M289.82,165.73c.08-.22-.13-.64.1-.86.37.33-.09.81-.1.86Z"/>
      <path class="cls-1" d="M290.42,163.38s.03-.29.2-.64c-.06.35.02.28-.2.64Z"/>
      <path class="cls-1" d="M290.61,162.74c.06-.13-.11-.5.1-.64.35.38-.09.61-.1.64Z"/>
      <path class="cls-1" d="M289.62,166.37s.1-.37.2-.64c-.07.3.04.26-.2.64Z"/>
      <path class="cls-5" d="M250.51,132.6c.15-3.17.27-6.23,1.39-9.19l-.99,14.64c-.4.23-.46.23-.6-.21-.27-.88.14-4.08.2-5.24Z"/>
      <path class="cls-5" d="M272.35,229.44c4.16,6.11,8.89,11.9,14.1,17,.09.33-3.39,5.38-3.77,5.67-.31-.08-.44-.39-.6-.64s-.18-.18-.4-.32c.71-.09,3.6-4.19,3.57-4.49-3.77-3.66-7.18-7.49-10.32-11.76-.46-.63-3.9-5.31-3.57-5.56.42-.32.61.15.99.11Z"/>
    </g>
  </g>
  <g id="Calque_3" data-name="Calque 3">
    <path class="cls-7" d="M160.52,132.84c-2.71-1.29,1.28-16.8,1.28-16.8,0,0,3.37-.14,5.1-1.29,2.09-1.38,1.78-4.2,2.55-7.75.93-4.27,2.86-7.08,5.1-10.34,3.55-5.17,7.4-7.87,12.76-11.63,4.26-2.99,4.92-2.77,5.1-2.58.6.59-1.2,3.42-2.76,5.84-3.3,5.13-6.28,8.27-6.17,8.38.17.17,7.47-8.26,17.87-16.8,1.99-1.63,4.73-3.67,10.21-7.75,8.66-6.45,13.06-9.71,16.59-11.63,6.13-3.34,11.07-4.83,16.59-6.46,14.23-4.2,27.77-5.2,27.92-4.4.07.39-3.08.78-8.78,3.1-5.85,2.39-6.66,4.05-16.59,9.05-7.52,3.78-9.08,4.62-8.93,5.17.41,1.5,13.41-.75,21.69-2.58,9.26-2.05,8.63-2.7,15.31-3.88,10.38-1.83,18.78-1.47,22.97-1.29,6.62.28,12.5,1.19,13.52,1.35.57.09,1.07.17,1.47.24,5.54.93,10.56,1.78,10.54,2.28-.03.57-6.44.04-16.59,1.29,0,0-8.32,1.03-15.18,3.82-.05.02-.12.05-.13.05-1.62.66-7.83,3.21-7.66,3.88.17.67,6.49-1.6,15.31-1.29,1.8.06,6.79.34,12.86,2.25,5.77,1.81,11.62,4.82,11.38,5.5-.32.92-10.78-4.46-25.52-3.88,0,0-8.65.34-19.14,5.17-1.35.62-4.01,1.91-3.83,2.58.26.98,6.16-.69,14.04,0,3.77.33,6.34,1.08,11.49,2.58,10.82,3.16,14.86,6.28,16.59,7.75,1.12.96,4.47,3.82,3.83,5.17-.88,1.87-8.85-.39-8.93,0-.09.4,8.62,1.75,17.87,6.46,4.39,2.24,7.64,4.6,10.21,6.46,5.39,3.91,5.9,5.15,12.76,10.34,4.02,3.04,6.62,4.71,6.38,5.17-.52,1-13.39-6.42-15.31-3.88-1.05,1.38,1.42,5.38,3.83,7.75,2.25,2.22,4.55,3.13,6.38,3.88,7.28,2.99,10.92,4.48,14.04,6.46,1.18.75,5.06,4.82,12.76,12.92,4.05,4.26,5.51,5.84,5.1,6.46-.56.85-4.56-.29-7.66-2.58-3.39-2.51-4.42-5.46-5.1-5.17-.74.31-.48,4.17,1.28,7.75,2.12,4.33,4.37,4.04,7.66,9.05,2.41,3.66,1.73,4.62,3.83,6.46,2.15,1.89,5.62,3.32,8.93,2.58,4.02-.9,5.24-4.43,6.38-3.88,1.67.8,1.08,9.35-3.83,14.22-.88.87-.85.59-5.1,3.88-3.65,2.82-5.47,4.23-6.38,5.17-3.91,4.03-5.39,8.58-6.38,11.63-.99,3.04-2.31,7.13-1.28,7.75,2.28,1.37,13.41-15.42,15.31-14.22,1.06.67-1.34,6.51-2.55,9.05-.96,2.02-2.51,4.75-5.1,7.75-3.56,4.13-4.08,2.97-8.93,7.75-2.7,2.67-8.54,8.94-10.21,10.34-.93.78-1.89,1.53-1.89,1.53-.25.19-.53.42-.87.67-1.8,1.35-2.39,1.53-2.34,1.68.12.44,5.63.6,10.21-2.58,3.42-2.38,4.6-5.42,5.1-5.17.68.34-.42,6.51-3.83,11.63-5.11,7.68-13.64,10.32-26.8,14.22-11.58,3.43-14.24,2.41-21.69,6.46-3.66,1.99-5.6,3.64-10.21,5.17-7.82,2.59-13.97,1.72-14.04,2.58-.06.78,4.81,2.36,10.21,2.58,7.89.32,15.24-2.35,20.73-4.34,1.3-.47,2.24-.83,2.24-.83,4.85-1.87,6.22-2.81,6.38-2.58.38.54-6.38,7.94-16.59,12.92-7.22,3.53-13.44,4.51-17.87,5.17-9.03,1.35-13.63,2.04-19.14,0-5.98-2.21-7.33-5.53-14.04-6.46-3.21-.45-3.38.24-8.93,0-8.14-.36-12.5-2.05-12.76-1.29-.27.78,4.08,3.5,8.93,5.17,6.05,2.09,10.09,1.58,10.21,2.58.14,1.12-4.76,3.3-10.21,3.88-5.13.54-7.61-.67-19.14-3.88-12.7-3.53-13.22-3.04-17.87-5.17-2.12-.97-7.15-3.31-12.76-7.75-6.34-5.02-9.46-9.57-10.21-9.05-1.22.85,6.59,13.1,5.1,14.22-.84.63-3.65-3.08-11.49-9.05-4.51-3.43-6.13-4.15-10.21-7.75-.48-.42-3.21-2.85-6.38-6.46-3.22-3.66-4.35-5.64-5.1-7.38-.37-.86-.94-2.33-1.28-4.25-.05-.28-.84-4.88,0-5.17.99-.34,2.24,5.93,7.66,10.34,1.64,1.34,4.86,3.96,8.93,3.88,6.91-.14,10.42-7.97,14.04-6.46,1.12.47,1.18,1.39,2.55,3.88,0,0,3.29,5.97,8.93,10.34,1.62,1.26,6.23,4.82,12.76,5.17,7.99.42,14.12-4.23,15.31-5.17,4.92-3.89,6.08-8.1,8.93-7.75,1.93.24,2.43,2.3,5.1,5.17,3.6,3.86,7.66,5.46,10.21,6.46,1.55.61,11.97,4.71,20.42,0,2.71-1.51,5.64-4.89,11.49-11.63,3.51-4.05,4.94-6.15,7.66-6.46,3.57-.41,4.4,2.83,8.93,3.88,5.65,1.3,12.79-1.79,16.59-6.46,3.21-3.95,2.81-7.52,6.38-9.05,2.36-1.01,3.94-.05,6.38,0,7.6.15,13.68-8.69,16.59-12.92,7.26-10.56,7.63-21.66,7.66-24.56.1-13.78-6.4-24.65-8.93-28.43-2.72-4.06-5.67-7.14-5.1-7.75.64-.7,5.67,1.93,8.93,6.46,2.92,4.06,3.14,7.86,3.83,7.75.78-.12,1.41-5.21,0-10.34-1.99-7.21-7.18-11.51-8.93-12.92-1.02-.83-3.2-2.46-6.38-3.88-9.1-4.06-14.86-1.22-17.87-5.17-.92-1.2-.51-1.64-1.28-6.46-1.21-7.59-2.01-12.62-5.1-16.8-4.2-5.68-10.77-7.27-12.76-7.75-2.68-.65-6.92-1.68-11.49,0-4.41,1.62-6.17,4.69-8.93,3.88-.82-.24-1.26-.68-3.83-3.88-3.67-4.56-4.06-5.26-5.1-6.46-1.08-1.24-4.19-4.55-8.93-6.46-1.52-.61-6.15-2.49-11.49-1.29-6.14,1.38-13.71,6.93-16.59,9.05-.67.49-2.16,1.61-3.83,1.29-1.74-.33-2.23-1.95-3.83-3.88-3.64-4.38-9.29-5.88-11.49-6.46-3.18-.84-4.99-.62-5.1-1.29-.27-1.64,10.42-4.06,10.21-5.17-.16-.85-6.73-1.68-12.76,1.29-5.82,2.87-9.42,8.44-11.49,11.63-3.59,5.56-3.99,8.8-6.38,9.05-2.73.28-3.62-3.78-8.93-5.17-2.96-.77-5.46-.24-6.38,0-3.57.92-6.22,2.97-6.38,3.88-.99,5.65-9.72,5.84-13.06,9.44-1.67,1.8-6.1,11.83-7.35,11.23Z"/>
  </g>
</svg>